# xmcd CD database file
#
# Track frame offsets:
#	150
#	21203
#	40485
#	65752
#	81268
#	101690
#	125375
#	147360
#	170267
#	195873
#	217003
#	230708
#	257024
#	281541
#
# Disc length: 4096 seconds
#
# Revision: 2
# Processed by: cddbd v1.5.2PL0 Copyright (c) Steve Scherf et al.
# Submitted via: CDex 1.70beta3
#
DISCID=cd0ffe0e
DTITLE=福耳 +All Stars - ALL SONGS MUST PASS -Office Augusta 20th Anniversary BEST- (Disc-2)
DYEAR=1900
DGENRE=Blues
TTITLE0=惑星タイマー
TTITLE1=まなざし☆デイドリーム
TTITLE2=アイ
TTITLE3=明日のラストナイト
TTITLE4=ガラナ
TTITLE5=あなたがここにいてほしい
TTITLE6=pulling from above
TTITLE7=Loveless
TTITLE8=午後のパレード
TTITLE9=晴男
TTITLE10=イコール ゼロ
TTITLE11=DANCE BABY DANCE
TTITLE12=夏はこれからだ!
TTITLE13=星のかけらを探しに行こう Again -2010 Acoustic ver.-
EXTD=
EXTT0=
EXTT1=
EXTT2=
EXTT3=
EXTT4=
EXTT5=
EXTT6=
EXTT7=
EXTT8=
EXTT9=
EXTT10=
EXTT11=
EXTT12=
EXTT13=
PLAYORDER=
